<svg preserveAspectRatio="none" overflow="visible" style="display: block;" width="40" height="40" viewBox="0 0 40 40" fill="none" xmlns="http://www.w3.org/2000/svg">
<g id="Group 1272630879">
<circle id="Ellipse 64" cx="20" cy="20" r="20" fill="#F9F9FB"/>
<g id="fi_300221" clip-path="url(#clip0_0_3481)">
<path id="Vector" d="M29.8596 18.1454L21.1579 18.145C20.7737 18.145 20.4622 18.4564 20.4622 18.8406V21.6204C20.4622 22.0046 20.7737 22.3161 21.1579 22.3161H26.0581C25.5216 23.7086 24.5201 24.8748 23.2423 25.6158L25.3318 29.2329C28.6835 27.2944 30.6651 23.8932 30.6651 20.0858C30.6651 19.5437 30.6251 19.1561 30.5452 18.7197C30.4845 18.3882 30.1966 18.1454 29.8596 18.1454Z" fill="black"/>
<path id="Vector_2" d="M20 26.4928C17.6019 26.4928 15.5084 25.1826 14.384 23.2437L10.7671 25.3285C12.6077 28.5186 16.0558 30.6668 20 30.6668C21.9349 30.6668 23.7606 30.1458 25.3333 29.2379V29.233L23.2439 25.6159C22.2881 26.1702 21.1821 26.4928 20 26.4928Z" fill="black"/>
<path id="Vector_3" d="M25.3346 29.2377V29.2327L23.2452 25.6157C22.2894 26.1699 21.1835 26.4926 20.0013 26.4926V30.6665C21.9362 30.6665 23.762 30.1456 25.3346 29.2377Z" fill="black"/>
<path id="Vector_4" d="M13.5072 20.0001C13.5072 18.8181 13.8298 17.7122 14.384 16.7565L10.7671 14.6717C9.85424 16.2395 9.33332 18.0603 9.33332 20.0001C9.33332 21.9399 9.85424 23.7607 10.7671 25.3285L14.384 23.2437C13.8298 22.288 13.5072 21.1821 13.5072 20.0001Z" fill="black"/>
<path id="Vector_5" d="M20 13.5073C21.5638 13.5073 23.0002 14.063 24.1222 14.9873C24.3989 15.2153 24.8012 15.1988 25.0548 14.9453L27.0244 12.9757C27.312 12.6881 27.2915 12.2172 26.9842 11.9506C25.1044 10.3198 22.6586 9.33343 20 9.33343C16.0558 9.33343 12.6077 11.4816 10.7671 14.6717L14.384 16.7565C15.5084 14.8176 17.6019 13.5073 20 13.5073Z" fill="black"/>
<path id="Vector_6" d="M24.1235 14.9873C24.4002 15.2153 24.8026 15.1988 25.0561 14.9453L27.0257 12.9757C27.3133 12.6881 27.2928 12.2172 26.9855 11.9506C25.1057 10.3198 22.6599 9.33343 20.0013 9.33343V13.5073C21.565 13.5073 23.0015 14.063 24.1235 14.9873Z" fill="black"/>
</g>
</g>
<defs>
<clipPath id="clip0_0_3481">
<rect width="21.3333" height="21.3333" fill="white" transform="translate(9.33332 9.33343)"/>
</clipPath>
</defs>
</svg>
