<svg preserveAspectRatio="none" overflow="visible" style="display: block;" width="36" height="36" viewBox="0 0 36 36" fill="none" xmlns="http://www.w3.org/2000/svg">
<g id="Icon 03">
<g id="Vector">
<path d="M35 18C35 8.61116 27.3888 1 18 1C8.61116 1 1 8.61116 1 18C1 27.3888 8.61116 35 18 35C27.3888 35 35 27.3888 35 18ZM36 18C36 27.9411 27.9411 36 18 36C8.05887 36 0 27.9411 0 18C0 8.05887 8.05887 0 18 0C27.9411 0 36 8.05887 36 18Z" fill="black"/>
<path d="M27.0222 12.8903C26.4561 13.1342 25.861 13.304 25.2515 13.3955C25.5364 13.3466 25.9557 12.8333 26.1226 12.6255C26.3761 12.3121 26.5694 11.9543 26.6925 11.5703C26.6925 11.5418 26.721 11.5011 26.6925 11.4807C26.6781 11.4728 26.662 11.4687 26.6456 11.4687C26.6293 11.4687 26.6132 11.4728 26.5988 11.4807C25.9371 11.8394 25.2327 12.1131 24.5025 12.2955C24.4771 12.3033 24.45 12.304 24.4242 12.2975C24.3984 12.2911 24.3748 12.2777 24.356 12.2588C24.2992 12.1911 24.238 12.1271 24.1728 12.0674C23.875 11.8003 23.5371 11.5817 23.1715 11.4196C22.678 11.2169 22.1449 11.1292 21.6125 11.1629C21.0959 11.1956 20.5916 11.3342 20.1308 11.5703C19.6771 11.8192 19.2784 12.1573 18.9585 12.5644C18.6221 12.9834 18.3792 13.4696 18.2462 13.9903C18.1365 14.4857 18.1241 14.9977 18.2096 15.4978C18.2096 15.5833 18.2096 15.5955 18.1363 15.5833C15.234 15.1555 12.8528 14.1248 10.9071 11.9125C10.8216 11.8148 10.7768 11.8148 10.7077 11.9125C9.86099 13.2 10.2721 15.237 11.3304 16.2433C11.4729 16.3778 11.6194 16.5081 11.7741 16.6304C11.2889 16.5959 10.8155 16.4643 10.382 16.2433C10.3006 16.1904 10.2558 16.2189 10.2518 16.3167C10.2402 16.4522 10.2402 16.5885 10.2518 16.7241C10.3367 17.3737 10.5925 17.9891 10.993 18.5074C11.3935 19.0257 11.9243 19.4281 12.5312 19.6737C12.6792 19.7371 12.8333 19.7849 12.9912 19.8163C12.542 19.9048 12.0813 19.9186 11.6276 19.8571C11.5299 19.8367 11.4933 19.8896 11.5299 19.9833C12.1283 21.613 13.4267 22.11 14.3792 22.3871C14.5095 22.4074 14.6397 22.4074 14.7863 22.44C14.7863 22.44 14.7863 22.44 14.7619 22.4645C14.481 22.9778 13.3453 23.3241 12.8243 23.5034C11.8733 23.8453 10.8594 23.976 9.85285 23.8863C9.6941 23.8619 9.65747 23.866 9.61676 23.8863C9.57606 23.9067 9.61676 23.9515 9.66154 23.9923C9.86506 24.1267 10.0686 24.2449 10.2802 24.3589C10.9104 24.7029 11.5766 24.9762 12.2666 25.1738C15.8405 26.1597 19.8622 25.4345 22.5446 22.766C24.6531 20.6719 25.394 17.7833 25.394 14.8907C25.394 14.7807 25.5283 14.7155 25.6056 14.6585C26.1391 14.2425 26.6094 13.7512 27.0018 13.2C27.0698 13.1178 27.1046 13.0132 27.0995 12.9066C27.0995 12.8455 27.0995 12.8577 27.0222 12.8903Z" fill="black"/>
</g>
</g>
</svg>
